<mxfile host="app.diagrams.net" modified="2020-12-11T14:25:04.477Z" agent="5.0 (Windows NT 10.0; Win64; x64) AppleWebKit/537.36 (KHTML, like Gecko) Chrome/86.0.4240.183 Safari/537.36" etag="TI_y-sASOJTdv2LYUccT" version="14.0.1" type="github">
  <diagram id="RvZpzLeGWJtAA3j-8dYV" name="Page-1">
    <mxGraphModel dx="981" dy="526" grid="1" gridSize="10" guides="1" tooltips="1" connect="1" arrows="1" fold="1" page="1" pageScale="1" pageWidth="827" pageHeight="1169" math="0" shadow="0">
      <root>
        <mxCell id="0" />
        <mxCell id="1" parent="0" />
        <mxCell id="C_f93wOA0DSSE3lVDmoJ-1" value="Zoo" style="swimlane;fontStyle=1;align=center;verticalAlign=top;childLayout=stackLayout;horizontal=1;startSize=26;horizontalStack=0;resizeParent=1;resizeParentMax=0;resizeLast=0;collapsible=1;marginBottom=0;" vertex="1" parent="1">
          <mxGeometry x="240" y="130" width="160" height="138" as="geometry" />
        </mxCell>
        <mxCell id="C_f93wOA0DSSE3lVDmoJ-2" value="+ name: String" style="text;strokeColor=none;fillColor=none;align=left;verticalAlign=top;spacingLeft=4;spacingRight=4;overflow=hidden;rotatable=0;points=[[0,0.5],[1,0.5]];portConstraint=eastwest;" vertex="1" parent="C_f93wOA0DSSE3lVDmoJ-1">
          <mxGeometry y="26" width="160" height="26" as="geometry" />
        </mxCell>
        <mxCell id="C_f93wOA0DSSE3lVDmoJ-5" value="+ address: String" style="text;strokeColor=none;fillColor=none;align=left;verticalAlign=top;spacingLeft=4;spacingRight=4;overflow=hidden;rotatable=0;points=[[0,0.5],[1,0.5]];portConstraint=eastwest;" vertex="1" parent="C_f93wOA0DSSE3lVDmoJ-1">
          <mxGeometry y="52" width="160" height="26" as="geometry" />
        </mxCell>
        <mxCell id="C_f93wOA0DSSE3lVDmoJ-3" value="" style="line;strokeWidth=1;fillColor=none;align=left;verticalAlign=middle;spacingTop=-1;spacingLeft=3;spacingRight=3;rotatable=0;labelPosition=right;points=[];portConstraint=eastwest;" vertex="1" parent="C_f93wOA0DSSE3lVDmoJ-1">
          <mxGeometry y="78" width="160" height="8" as="geometry" />
        </mxCell>
        <mxCell id="C_f93wOA0DSSE3lVDmoJ-4" value="+ openGates(): void" style="text;strokeColor=none;fillColor=none;align=left;verticalAlign=top;spacingLeft=4;spacingRight=4;overflow=hidden;rotatable=0;points=[[0,0.5],[1,0.5]];portConstraint=eastwest;" vertex="1" parent="C_f93wOA0DSSE3lVDmoJ-1">
          <mxGeometry y="86" width="160" height="26" as="geometry" />
        </mxCell>
        <mxCell id="C_f93wOA0DSSE3lVDmoJ-6" value="+ closeGates(): void" style="text;strokeColor=none;fillColor=none;align=left;verticalAlign=top;spacingLeft=4;spacingRight=4;overflow=hidden;rotatable=0;points=[[0,0.5],[1,0.5]];portConstraint=eastwest;" vertex="1" parent="C_f93wOA0DSSE3lVDmoJ-1">
          <mxGeometry y="112" width="160" height="26" as="geometry" />
        </mxCell>
        <mxCell id="C_f93wOA0DSSE3lVDmoJ-44" style="edgeStyle=orthogonalEdgeStyle;rounded=0;orthogonalLoop=1;jettySize=auto;html=1;exitX=0.5;exitY=0;exitDx=0;exitDy=0;entryX=0.5;entryY=1;entryDx=0;entryDy=0;endArrow=diamondThin;endFill=0;" edge="1" parent="1" source="C_f93wOA0DSSE3lVDmoJ-7" target="C_f93wOA0DSSE3lVDmoJ-1">
          <mxGeometry relative="1" as="geometry" />
        </mxCell>
        <mxCell id="C_f93wOA0DSSE3lVDmoJ-45" value="1..*" style="edgeLabel;html=1;align=center;verticalAlign=middle;resizable=0;points=[];" vertex="1" connectable="0" parent="C_f93wOA0DSSE3lVDmoJ-44">
          <mxGeometry x="-0.7191" y="-1" relative="1" as="geometry">
            <mxPoint x="11" y="-2" as="offset" />
          </mxGeometry>
        </mxCell>
        <mxCell id="C_f93wOA0DSSE3lVDmoJ-46" value="1" style="edgeLabel;html=1;align=center;verticalAlign=middle;resizable=0;points=[];" vertex="1" connectable="0" parent="C_f93wOA0DSSE3lVDmoJ-44">
          <mxGeometry x="0.2902" relative="1" as="geometry">
            <mxPoint x="10" y="-4.899999999999999" as="offset" />
          </mxGeometry>
        </mxCell>
        <mxCell id="C_f93wOA0DSSE3lVDmoJ-7" value="Animal" style="swimlane;fontStyle=1;align=center;verticalAlign=top;childLayout=stackLayout;horizontal=1;startSize=26;horizontalStack=0;resizeParent=1;resizeParentMax=0;resizeLast=0;collapsible=1;marginBottom=0;" vertex="1" parent="1">
          <mxGeometry x="265" y="320" width="110" height="138" as="geometry" />
        </mxCell>
        <mxCell id="C_f93wOA0DSSE3lVDmoJ-8" value="+ age: Int" style="text;strokeColor=none;fillColor=none;align=left;verticalAlign=top;spacingLeft=4;spacingRight=4;overflow=hidden;rotatable=0;points=[[0,0.5],[1,0.5]];portConstraint=eastwest;" vertex="1" parent="C_f93wOA0DSSE3lVDmoJ-7">
          <mxGeometry y="26" width="110" height="26" as="geometry" />
        </mxCell>
        <mxCell id="C_f93wOA0DSSE3lVDmoJ-43" value="+ name: String" style="text;strokeColor=none;fillColor=none;align=left;verticalAlign=top;spacingLeft=4;spacingRight=4;overflow=hidden;rotatable=0;points=[[0,0.5],[1,0.5]];portConstraint=eastwest;" vertex="1" parent="C_f93wOA0DSSE3lVDmoJ-7">
          <mxGeometry y="52" width="110" height="26" as="geometry" />
        </mxCell>
        <mxCell id="C_f93wOA0DSSE3lVDmoJ-11" value="+ gender: String" style="text;strokeColor=none;fillColor=none;align=left;verticalAlign=top;spacingLeft=4;spacingRight=4;overflow=hidden;rotatable=0;points=[[0,0.5],[1,0.5]];portConstraint=eastwest;" vertex="1" parent="C_f93wOA0DSSE3lVDmoJ-7">
          <mxGeometry y="78" width="110" height="26" as="geometry" />
        </mxCell>
        <mxCell id="C_f93wOA0DSSE3lVDmoJ-9" value="" style="line;strokeWidth=1;fillColor=none;align=left;verticalAlign=middle;spacingTop=-1;spacingLeft=3;spacingRight=3;rotatable=0;labelPosition=right;points=[];portConstraint=eastwest;" vertex="1" parent="C_f93wOA0DSSE3lVDmoJ-7">
          <mxGeometry y="104" width="110" height="8" as="geometry" />
        </mxCell>
        <mxCell id="C_f93wOA0DSSE3lVDmoJ-12" value="+ sleep(): void" style="text;strokeColor=none;fillColor=none;align=left;verticalAlign=top;spacingLeft=4;spacingRight=4;overflow=hidden;rotatable=0;points=[[0,0.5],[1,0.5]];portConstraint=eastwest;" vertex="1" parent="C_f93wOA0DSSE3lVDmoJ-7">
          <mxGeometry y="112" width="110" height="26" as="geometry" />
        </mxCell>
        <mxCell id="C_f93wOA0DSSE3lVDmoJ-21" style="edgeStyle=orthogonalEdgeStyle;rounded=0;orthogonalLoop=1;jettySize=auto;html=1;exitX=0.5;exitY=0;exitDx=0;exitDy=0;endArrow=block;endFill=0;" edge="1" parent="1" source="C_f93wOA0DSSE3lVDmoJ-13" target="C_f93wOA0DSSE3lVDmoJ-7">
          <mxGeometry relative="1" as="geometry" />
        </mxCell>
        <mxCell id="C_f93wOA0DSSE3lVDmoJ-47" style="edgeStyle=orthogonalEdgeStyle;rounded=0;orthogonalLoop=1;jettySize=auto;html=1;exitX=1;exitY=0.25;exitDx=0;exitDy=0;endArrow=open;endFill=0;dashed=1;" edge="1" parent="1" source="C_f93wOA0DSSE3lVDmoJ-13" target="C_f93wOA0DSSE3lVDmoJ-17">
          <mxGeometry relative="1" as="geometry" />
        </mxCell>
        <mxCell id="C_f93wOA0DSSE3lVDmoJ-13" value="Carnivore" style="swimlane;fontStyle=1;align=center;verticalAlign=top;childLayout=stackLayout;horizontal=1;startSize=26;horizontalStack=0;resizeParent=1;resizeParentMax=0;resizeLast=0;collapsible=1;marginBottom=0;" vertex="1" parent="1">
          <mxGeometry x="200" y="500" width="105" height="60" as="geometry" />
        </mxCell>
        <mxCell id="C_f93wOA0DSSE3lVDmoJ-15" value="" style="line;strokeWidth=1;fillColor=none;align=left;verticalAlign=middle;spacingTop=-1;spacingLeft=3;spacingRight=3;rotatable=0;labelPosition=right;points=[];portConstraint=eastwest;" vertex="1" parent="C_f93wOA0DSSE3lVDmoJ-13">
          <mxGeometry y="26" width="105" height="8" as="geometry" />
        </mxCell>
        <mxCell id="C_f93wOA0DSSE3lVDmoJ-16" value="+ eat(Herbivore): void" style="text;strokeColor=none;fillColor=none;align=left;verticalAlign=top;spacingLeft=4;spacingRight=4;overflow=hidden;rotatable=0;points=[[0,0.5],[1,0.5]];portConstraint=eastwest;" vertex="1" parent="C_f93wOA0DSSE3lVDmoJ-13">
          <mxGeometry y="34" width="105" height="26" as="geometry" />
        </mxCell>
        <mxCell id="C_f93wOA0DSSE3lVDmoJ-22" style="edgeStyle=orthogonalEdgeStyle;rounded=0;orthogonalLoop=1;jettySize=auto;html=1;exitX=0.5;exitY=0;exitDx=0;exitDy=0;endArrow=block;endFill=0;" edge="1" parent="1" source="C_f93wOA0DSSE3lVDmoJ-17" target="C_f93wOA0DSSE3lVDmoJ-7">
          <mxGeometry relative="1" as="geometry" />
        </mxCell>
        <mxCell id="C_f93wOA0DSSE3lVDmoJ-17" value="Herbivore" style="swimlane;fontStyle=1;align=center;verticalAlign=top;childLayout=stackLayout;horizontal=1;startSize=26;horizontalStack=0;resizeParent=1;resizeParentMax=0;resizeLast=0;collapsible=1;marginBottom=0;" vertex="1" parent="1">
          <mxGeometry x="352" y="500" width="128" height="86" as="geometry" />
        </mxCell>
        <mxCell id="C_f93wOA0DSSE3lVDmoJ-19" value="" style="line;strokeWidth=1;fillColor=none;align=left;verticalAlign=middle;spacingTop=-1;spacingLeft=3;spacingRight=3;rotatable=0;labelPosition=right;points=[];portConstraint=eastwest;" vertex="1" parent="C_f93wOA0DSSE3lVDmoJ-17">
          <mxGeometry y="26" width="128" height="8" as="geometry" />
        </mxCell>
        <mxCell id="C_f93wOA0DSSE3lVDmoJ-58" value="+ pet(Visitor): void" style="text;strokeColor=none;fillColor=none;align=left;verticalAlign=top;spacingLeft=4;spacingRight=4;overflow=hidden;rotatable=0;points=[[0,0.5],[1,0.5]];portConstraint=eastwest;" vertex="1" parent="C_f93wOA0DSSE3lVDmoJ-17">
          <mxGeometry y="34" width="128" height="26" as="geometry" />
        </mxCell>
        <mxCell id="C_f93wOA0DSSE3lVDmoJ-20" value="+ eat(): void" style="text;strokeColor=none;fillColor=none;align=left;verticalAlign=top;spacingLeft=4;spacingRight=4;overflow=hidden;rotatable=0;points=[[0,0.5],[1,0.5]];portConstraint=eastwest;" vertex="1" parent="C_f93wOA0DSSE3lVDmoJ-17">
          <mxGeometry y="60" width="128" height="26" as="geometry" />
        </mxCell>
        <mxCell id="C_f93wOA0DSSE3lVDmoJ-31" style="edgeStyle=orthogonalEdgeStyle;rounded=0;orthogonalLoop=1;jettySize=auto;html=1;exitX=0.5;exitY=0;exitDx=0;exitDy=0;endArrow=block;endFill=0;" edge="1" parent="1" source="C_f93wOA0DSSE3lVDmoJ-23" target="C_f93wOA0DSSE3lVDmoJ-13">
          <mxGeometry relative="1" as="geometry" />
        </mxCell>
        <mxCell id="C_f93wOA0DSSE3lVDmoJ-23" value="Lion" style="swimlane;fontStyle=1;align=center;verticalAlign=top;childLayout=stackLayout;horizontal=1;startSize=26;horizontalStack=0;resizeParent=1;resizeParentMax=0;resizeLast=0;collapsible=1;marginBottom=0;" vertex="1" parent="1">
          <mxGeometry x="187.5" y="630" width="60" height="34" as="geometry" />
        </mxCell>
        <mxCell id="C_f93wOA0DSSE3lVDmoJ-25" value="" style="line;strokeWidth=1;fillColor=none;align=left;verticalAlign=middle;spacingTop=-1;spacingLeft=3;spacingRight=3;rotatable=0;labelPosition=right;points=[];portConstraint=eastwest;" vertex="1" parent="C_f93wOA0DSSE3lVDmoJ-23">
          <mxGeometry y="26" width="60" height="8" as="geometry" />
        </mxCell>
        <mxCell id="C_f93wOA0DSSE3lVDmoJ-32" style="edgeStyle=orthogonalEdgeStyle;rounded=0;orthogonalLoop=1;jettySize=auto;html=1;exitX=0.5;exitY=0;exitDx=0;exitDy=0;endArrow=block;endFill=0;" edge="1" parent="1" source="C_f93wOA0DSSE3lVDmoJ-27" target="C_f93wOA0DSSE3lVDmoJ-13">
          <mxGeometry relative="1" as="geometry" />
        </mxCell>
        <mxCell id="C_f93wOA0DSSE3lVDmoJ-27" value="Wolf" style="swimlane;fontStyle=1;align=center;verticalAlign=top;childLayout=stackLayout;horizontal=1;startSize=26;horizontalStack=0;resizeParent=1;resizeParentMax=0;resizeLast=0;collapsible=1;marginBottom=0;" vertex="1" parent="1">
          <mxGeometry x="257.5" y="630" width="60" height="34" as="geometry" />
        </mxCell>
        <mxCell id="C_f93wOA0DSSE3lVDmoJ-29" value="" style="line;strokeWidth=1;fillColor=none;align=left;verticalAlign=middle;spacingTop=-1;spacingLeft=3;spacingRight=3;rotatable=0;labelPosition=right;points=[];portConstraint=eastwest;" vertex="1" parent="C_f93wOA0DSSE3lVDmoJ-27">
          <mxGeometry y="26" width="60" height="8" as="geometry" />
        </mxCell>
        <mxCell id="C_f93wOA0DSSE3lVDmoJ-41" style="edgeStyle=orthogonalEdgeStyle;rounded=0;orthogonalLoop=1;jettySize=auto;html=1;exitX=0.5;exitY=0;exitDx=0;exitDy=0;endArrow=block;endFill=0;" edge="1" parent="1" source="C_f93wOA0DSSE3lVDmoJ-33" target="C_f93wOA0DSSE3lVDmoJ-17">
          <mxGeometry relative="1" as="geometry" />
        </mxCell>
        <mxCell id="C_f93wOA0DSSE3lVDmoJ-33" value="Zebra" style="swimlane;fontStyle=1;align=center;verticalAlign=top;childLayout=stackLayout;horizontal=1;startSize=26;horizontalStack=0;resizeParent=1;resizeParentMax=0;resizeLast=0;collapsible=1;marginBottom=0;" vertex="1" parent="1">
          <mxGeometry x="352" y="630" width="60" height="34" as="geometry" />
        </mxCell>
        <mxCell id="C_f93wOA0DSSE3lVDmoJ-35" value="" style="line;strokeWidth=1;fillColor=none;align=left;verticalAlign=middle;spacingTop=-1;spacingLeft=3;spacingRight=3;rotatable=0;labelPosition=right;points=[];portConstraint=eastwest;" vertex="1" parent="C_f93wOA0DSSE3lVDmoJ-33">
          <mxGeometry y="26" width="60" height="8" as="geometry" />
        </mxCell>
        <mxCell id="C_f93wOA0DSSE3lVDmoJ-42" style="edgeStyle=orthogonalEdgeStyle;rounded=0;orthogonalLoop=1;jettySize=auto;html=1;exitX=0.5;exitY=0;exitDx=0;exitDy=0;endArrow=block;endFill=0;" edge="1" parent="1" source="C_f93wOA0DSSE3lVDmoJ-37" target="C_f93wOA0DSSE3lVDmoJ-17">
          <mxGeometry relative="1" as="geometry" />
        </mxCell>
        <mxCell id="C_f93wOA0DSSE3lVDmoJ-37" value="Rhino" style="swimlane;fontStyle=1;align=center;verticalAlign=top;childLayout=stackLayout;horizontal=1;startSize=26;horizontalStack=0;resizeParent=1;resizeParentMax=0;resizeLast=0;collapsible=1;marginBottom=0;" vertex="1" parent="1">
          <mxGeometry x="422" y="630" width="60" height="34" as="geometry" />
        </mxCell>
        <mxCell id="C_f93wOA0DSSE3lVDmoJ-39" value="" style="line;strokeWidth=1;fillColor=none;align=left;verticalAlign=middle;spacingTop=-1;spacingLeft=3;spacingRight=3;rotatable=0;labelPosition=right;points=[];portConstraint=eastwest;" vertex="1" parent="C_f93wOA0DSSE3lVDmoJ-37">
          <mxGeometry y="26" width="60" height="8" as="geometry" />
        </mxCell>
        <mxCell id="C_f93wOA0DSSE3lVDmoJ-48" value="Visitor" style="swimlane;fontStyle=1;align=center;verticalAlign=top;childLayout=stackLayout;horizontal=1;startSize=26;horizontalStack=0;resizeParent=1;resizeParentMax=0;resizeLast=0;collapsible=1;marginBottom=0;" vertex="1" parent="1">
          <mxGeometry x="520" y="130" width="160" height="112" as="geometry" />
        </mxCell>
        <mxCell id="C_f93wOA0DSSE3lVDmoJ-49" value="+ name: String" style="text;strokeColor=none;fillColor=none;align=left;verticalAlign=top;spacingLeft=4;spacingRight=4;overflow=hidden;rotatable=0;points=[[0,0.5],[1,0.5]];portConstraint=eastwest;" vertex="1" parent="C_f93wOA0DSSE3lVDmoJ-48">
          <mxGeometry y="26" width="160" height="26" as="geometry" />
        </mxCell>
        <mxCell id="C_f93wOA0DSSE3lVDmoJ-52" value="+ age: Int" style="text;strokeColor=none;fillColor=none;align=left;verticalAlign=top;spacingLeft=4;spacingRight=4;overflow=hidden;rotatable=0;points=[[0,0.5],[1,0.5]];portConstraint=eastwest;" vertex="1" parent="C_f93wOA0DSSE3lVDmoJ-48">
          <mxGeometry y="52" width="160" height="26" as="geometry" />
        </mxCell>
        <mxCell id="C_f93wOA0DSSE3lVDmoJ-50" value="" style="line;strokeWidth=1;fillColor=none;align=left;verticalAlign=middle;spacingTop=-1;spacingLeft=3;spacingRight=3;rotatable=0;labelPosition=right;points=[];portConstraint=eastwest;" vertex="1" parent="C_f93wOA0DSSE3lVDmoJ-48">
          <mxGeometry y="78" width="160" height="8" as="geometry" />
        </mxCell>
        <mxCell id="C_f93wOA0DSSE3lVDmoJ-51" value="+ visit(Zoo): void" style="text;strokeColor=none;fillColor=none;align=left;verticalAlign=top;spacingLeft=4;spacingRight=4;overflow=hidden;rotatable=0;points=[[0,0.5],[1,0.5]];portConstraint=eastwest;" vertex="1" parent="C_f93wOA0DSSE3lVDmoJ-48">
          <mxGeometry y="86" width="160" height="26" as="geometry" />
        </mxCell>
        <mxCell id="C_f93wOA0DSSE3lVDmoJ-54" style="edgeStyle=orthogonalEdgeStyle;rounded=0;orthogonalLoop=1;jettySize=auto;html=1;exitX=0;exitY=0.5;exitDx=0;exitDy=0;endArrow=classic;endFill=1;" edge="1" parent="1" source="C_f93wOA0DSSE3lVDmoJ-49" target="C_f93wOA0DSSE3lVDmoJ-1">
          <mxGeometry relative="1" as="geometry">
            <Array as="points">
              <mxPoint x="430" y="169" />
              <mxPoint x="430" y="169" />
            </Array>
          </mxGeometry>
        </mxCell>
        <mxCell id="C_f93wOA0DSSE3lVDmoJ-55" value="1" style="edgeLabel;html=1;align=center;verticalAlign=middle;resizable=0;points=[];" vertex="1" connectable="0" parent="C_f93wOA0DSSE3lVDmoJ-54">
          <mxGeometry x="-0.8763" relative="1" as="geometry">
            <mxPoint x="-3" y="-9.01" as="offset" />
          </mxGeometry>
        </mxCell>
        <mxCell id="C_f93wOA0DSSE3lVDmoJ-56" value="visits" style="edgeLabel;html=1;align=center;verticalAlign=middle;resizable=0;points=[];" vertex="1" connectable="0" parent="C_f93wOA0DSSE3lVDmoJ-54">
          <mxGeometry x="0.7467" y="-1" relative="1" as="geometry">
            <mxPoint x="8.03" y="11.97" as="offset" />
          </mxGeometry>
        </mxCell>
        <mxCell id="C_f93wOA0DSSE3lVDmoJ-57" value="*" style="edgeLabel;html=1;align=center;verticalAlign=middle;resizable=0;points=[];" vertex="1" connectable="0" parent="C_f93wOA0DSSE3lVDmoJ-54">
          <mxGeometry x="0.388" relative="1" as="geometry">
            <mxPoint x="-23.86" y="-9.03" as="offset" />
          </mxGeometry>
        </mxCell>
        <mxCell id="C_f93wOA0DSSE3lVDmoJ-59" style="edgeStyle=orthogonalEdgeStyle;rounded=0;orthogonalLoop=1;jettySize=auto;html=1;exitX=0;exitY=0.5;exitDx=0;exitDy=0;endArrow=none;endFill=0;dashed=1;startArrow=open;startFill=0;" edge="1" parent="1" source="C_f93wOA0DSSE3lVDmoJ-52" target="C_f93wOA0DSSE3lVDmoJ-17">
          <mxGeometry relative="1" as="geometry">
            <Array as="points">
              <mxPoint x="470" y="195" />
            </Array>
          </mxGeometry>
        </mxCell>
      </root>
    </mxGraphModel>
  </diagram>
</mxfile>
